<svg width="40" height="40" viewBox="0 0 40 40" fill="none" xmlns="http://www.w3.org/2000/svg">
<rect width="40" height="40" rx="5" fill="#EAEBED"/>
<path d="M18.0389 8.19975C21.5372 7.10726 24.7117 10.6989 23.1855 14.0426C22.8474 14.7835 21.8063 14.339 22.1478 13.5464C22.8142 12.0004 22.1908 10.2249 20.6708 9.47843C19.5627 8.93478 18.1997 9.09531 17.2577 9.92604C16.2256 10.8358 15.9069 12.2795 16.4551 13.5405C16.5022 13.6489 16.5286 13.7324 16.5341 13.7909C16.5743 14.2159 16.1507 14.5339 15.7592 14.3761C15.5977 14.3109 15.477 14.1825 15.3973 13.9909C15.1448 13.3853 15.0251 12.7755 15.0381 12.1613C15.0765 10.3362 16.3112 8.73924 18.0389 8.19975Z" fill="#598BE0"/>
<path d="M28.4843 10.5258C28.6916 10.7519 28.9933 11.0601 29.2363 11.3375C29.5362 11.6797 29.4121 11.9681 29.1368 12.2642C28.7094 12.7242 28.2809 13.1831 27.8512 13.641C27.6943 13.8081 27.5733 13.9101 27.4882 13.9468C27.2458 14.0515 26.9737 13.9694 26.8131 13.7603C26.439 13.2732 27.0181 12.8526 27.302 12.535C27.3126 12.5232 27.31 12.5165 27.294 12.5149C26.6184 12.4529 25.9443 12.3932 25.2717 12.3356C25.1465 12.3252 25.0144 12.3162 24.9048 12.2597C24.5616 12.0832 24.4701 11.6613 24.7204 11.3739C24.8292 11.249 24.9847 11.1778 25.1867 11.1603C25.8931 11.0995 26.5968 11.037 27.2979 10.9727C27.3003 10.9725 27.3027 10.9716 27.3046 10.9701C27.3066 10.9686 27.3081 10.9665 27.309 10.9642C27.3098 10.9619 27.31 10.9594 27.3095 10.957C27.309 10.9545 27.3079 10.9523 27.3062 10.9505C27.0493 10.6832 26.6117 10.34 26.7109 9.93499C26.819 9.49328 27.3655 9.35217 27.6837 9.67149C27.8264 9.81457 28.0932 10.0993 28.4843 10.5258Z" fill="#598BE0"/>
<path d="M11.4825 10.5547C11.3383 10.7048 11.2391 10.814 11.1133 10.9402C11.1106 10.9429 11.1087 10.9463 11.1078 10.9501C11.107 10.9538 11.1072 10.9578 11.1085 10.9614C11.1099 10.965 11.1122 10.9681 11.1152 10.9705C11.1183 10.9728 11.1219 10.9742 11.1258 10.9745C11.7494 11.0279 12.3745 11.0834 13.0011 11.141C13.2913 11.1677 13.437 11.1576 13.6114 11.2946C13.9328 11.5466 13.8908 12.0577 13.5337 12.2494C13.4627 12.2873 13.3446 12.3141 13.1794 12.3298C12.4982 12.395 11.8148 12.4558 11.1292 12.5122C11.1017 12.5143 11.0973 12.5255 11.1161 12.5458C11.2988 12.7421 11.5977 13.0094 11.6802 13.2299C11.9031 13.8266 11.1438 14.2479 10.6934 13.7822C10.4475 13.528 9.97041 13.0174 9.26219 12.2504C8.92414 11.8847 8.90438 11.6167 9.25317 11.2432C9.74158 10.7206 10.2323 10.2 10.7253 9.68129C11.2603 9.11892 12.1101 9.90146 11.4825 10.5547Z" fill="#598BE0"/>
<path d="M18.5999 10.7671C19.5284 10.3 20.6774 10.8759 20.9308 11.8634C20.9643 11.9935 20.9812 12.1958 20.9814 12.4701C20.9824 14.7749 20.9825 17.0797 20.9818 19.3846C20.9818 19.4904 21.0102 19.5587 21.1291 19.5476C21.1525 19.5455 21.1743 19.5346 21.1902 19.5173C21.2061 19.4999 21.215 19.4772 21.2151 19.4536C21.2169 19.273 21.2099 19.0674 21.2467 18.8975C21.6298 17.1223 24.0571 17.0728 24.5162 18.824C24.5606 18.9932 24.5606 19.1867 24.5658 19.3673C24.572 19.5802 24.822 19.6128 24.8986 19.4228C25.5459 17.8175 27.8797 18.0723 28.1158 19.7841C28.1307 19.8919 28.1314 20.0157 28.1903 20.1041C28.3065 20.2792 28.5225 20.275 28.6539 20.1148C28.6927 20.0677 28.7314 20.0213 28.77 19.9758C29.6628 18.9232 31.3482 19.3358 31.6661 20.6692C31.6976 20.8017 31.7133 20.9912 31.7133 21.2378C31.7128 23.0407 31.7105 24.8435 31.7063 26.6462C31.7011 28.9501 30.7258 31.1691 28.95 32.6465C27.6342 33.7407 26.0015 34.4227 24.2853 34.5055C21.4419 34.6428 18.7597 33.2997 17.2203 30.8959C15.5762 28.3285 13.93 25.7649 12.2512 23.2197C12.0376 22.8958 11.9148 22.7004 11.8826 22.6334C11.1095 21.0173 13.0583 19.4724 14.4424 20.6082C14.54 20.6882 14.6521 20.8129 14.7787 20.9823C15.465 21.899 16.1539 22.8141 16.8455 23.7276C16.9415 23.8545 17.04 23.9939 17.2102 24.0157C17.5108 24.0538 17.6363 23.8049 17.6363 23.5497C17.6366 19.8232 17.6382 16.0968 17.6412 12.3703C17.6417 11.6228 17.9612 11.0884 18.5999 10.7671Z" fill="#598BE0"/>
</svg>
