<svg width="1191" height="24" viewBox="0 0 1191 24" fill="none" xmlns="http://www.w3.org/2000/svg">
<path d="M327.59 4.51476L320.199 9.25415C311.058 15.1152 299.24 14.6857 290.549 8.17649L288.653 6.75605C280.212 0.43413 268.552 0.665831 260.37 7.3181V7.3181C251.981 14.1373 239.891 14.1238 231.442 7.37981V7.37981C223.11 0.728936 211.24 0.530232 202.76 6.99152L201.292 8.11027C192.953 14.4644 181.31 14.1387 173.339 7.32835V7.32835C165.552 0.675305 154.231 0.193759 145.907 6.16155L142.002 8.96108C133.845 14.8092 122.704 14.1331 115.315 7.34153V7.34153C108.082 0.69439 97.2293 -0.110876 89.0949 5.39604L82.9329 9.56762C74.8395 15.0467 63.9994 14.0279 57.0687 7.13667V7.13667C50.4721 0.57766 40.278 -0.69834 32.2683 4.03237L1 22.5L32.5895 4.51476C40.5104 -0.564404 50.4766 0.582189 57.2897 7.35647C64.2413 14.2684 74.4547 15.3072 82.4231 9.91276L89.2925 5.26222C97.4782 -0.279389 107.932 0.556698 115.317 7.34361C122.866 14.2818 133.599 14.9857 141.833 9.08268L146.023 6.0783C154.449 0.0369358 165.392 0.538124 173.34 7.32954C181.483 14.2866 192.74 14.6266 201.212 8.17151L202.792 6.96739C211.428 0.387344 222.945 0.59708 231.449 7.38517C240.073 14.2686 251.8 14.2849 260.369 7.31854C268.721 0.528755 280.016 0.287142 288.597 6.71468L290.548 8.17544C299.389 14.7975 310.861 15.2416 320.097 9.31921L327.59 4.51476ZM327.59 4.51476C335.51 -0.564404 345.477 0.582189 352.29 7.35647C359.241 14.2684 369.455 15.3072 377.423 9.91276L384.293 5.26222C392.478 -0.27939 402.932 0.5567 410.317 7.34362C417.866 14.2818 428.599 14.9857 436.833 9.08268L441.023 6.0783C449.449 0.0369353 460.392 0.538124 468.34 7.32954C476.483 14.2866 487.74 14.6266 496.212 8.17151L497.792 6.96739C506.428 0.387344 517.945 0.597079 526.449 7.38517C535.073 14.2686 546.8 14.2849 555.369 7.31854C563.721 0.528756 575.016 0.287143 583.597 6.71468V6.71468C593.462 14.103 606.876 14.5905 617.251 7.9379L622.59 4.51476C630.51 -0.564405 640.477 0.582189 647.29 7.35647C654.241 14.2684 664.455 15.3072 672.423 9.91276L679.293 5.26222C687.478 -0.279389 697.932 0.5567 705.317 7.34362C712.866 14.2818 723.599 14.9857 731.833 9.08268L736.023 6.0783C744.449 0.0369349 755.392 0.538124 763.341 7.32954C771.483 14.2866 782.74 14.6266 791.212 8.1715L792.792 6.96739C801.428 0.387344 812.945 0.597079 821.449 7.38517C830.073 14.2686 841.8 14.2849 850.369 7.31854C858.721 0.528756 870.016 0.287141 878.597 6.71468L880.548 8.17544C889.389 14.7975 900.861 15.2416 910.097 9.31921L917.59 4.51476C925.51 -0.564405 935.477 0.582189 942.29 7.35647C949.241 14.2684 959.455 15.3072 967.423 9.91276L974.293 5.26222C982.478 -0.27939 992.932 0.556701 1000.32 7.34362C1007.87 14.2818 1018.6 14.9857 1026.83 9.08268L1031.02 6.0783C1039.45 0.0369344 1050.39 0.538124 1058.34 7.32954C1066.48 14.2866 1077.74 14.6266 1086.21 8.1715L1087.79 6.96739C1096.43 0.387344 1107.95 0.597079 1116.45 7.38517C1125.07 14.2686 1136.8 14.2849 1145.37 7.31854C1153.72 0.528757 1165.02 0.287142 1173.6 6.71468L1190 19" stroke="black" stroke-opacity="0.37" stroke-width="2" stroke-linecap="round"/>
</svg>
