<svg width="40" height="710" viewBox="0 0 40 710" fill="none" xmlns="http://www.w3.org/2000/svg">
<g clip-path="url(#clip0_603_3)">
<path d="M27.4852 335.59L22.7459 328.199C16.8848 319.058 17.3143 307.24 23.8235 298.549L25.2439 296.653C31.5659 288.212 31.3342 276.552 24.6819 268.37V268.37C17.8627 259.981 17.8762 247.891 24.6202 239.442V239.442C31.2711 231.11 31.4698 219.24 25.0085 210.76L23.8897 209.292C17.5356 200.953 17.8613 189.31 24.6716 181.339V181.339C31.3247 173.552 31.8062 162.231 25.8384 153.907L23.0389 150.002C17.1908 141.845 17.8669 130.704 24.6585 123.315V123.315C31.3056 116.082 32.1109 105.229 26.604 97.0949L22.4324 90.9329C16.9533 82.8395 17.9721 71.9994 24.8633 65.0687V65.0687C31.4223 58.4721 32.6983 48.278 27.9676 40.2683L9.5 9L27.4852 40.5895C32.5644 48.5104 31.4178 58.4766 24.6435 65.2897C17.7316 72.2413 16.6928 82.4547 22.0872 90.4231L26.7378 97.2925C32.2794 105.478 31.4433 115.932 24.6564 123.317C17.7182 130.866 17.0143 141.599 22.9173 149.833L25.9217 154.023C31.9631 162.449 31.4619 173.392 24.6705 181.34C17.7134 189.483 17.3734 200.74 23.8285 209.212L25.0326 210.792C31.6127 219.428 31.4029 230.945 24.6148 239.449C17.7314 248.073 17.7151 259.8 24.6815 268.369C31.4712 276.721 31.7129 288.016 25.2853 296.597L23.8246 298.548C17.2025 307.389 16.7584 318.861 22.6808 328.097L27.4852 335.59ZM27.4852 335.59C32.5644 343.51 31.4178 353.477 24.6435 360.29C17.7316 367.241 16.6928 377.455 22.0872 385.423L26.7378 392.293C32.2794 400.478 31.4433 410.932 24.6564 418.317C17.7182 425.866 17.0143 436.599 22.9173 444.833L25.9217 449.023C31.9631 457.449 31.4619 468.392 24.6705 476.34C17.7134 484.483 17.3734 495.74 23.8285 504.212L25.0326 505.792C31.6127 514.428 31.4029 525.945 24.6148 534.449C17.7314 543.073 17.7151 554.8 24.6815 563.369C31.4712 571.721 31.7129 583.016 25.2853 591.597V591.597C17.897 601.462 17.4095 614.876 24.0621 625.251L27.4852 630.59C32.5644 638.51 31.4178 648.477 24.6435 655.29C17.7316 662.241 16.6928 672.455 22.0872 680.423L26.7378 687.293C32.2794 695.478 35.2869 700.115 28.5 707.5" stroke="black" stroke-opacity="0.37" stroke-width="2" stroke-linecap="round"/>
<circle cx="30" cy="700" r="10" fill="#598BE0"/>
<circle cx="10" cy="10" r="10" fill="#598BE0"/>
<circle cx="20" cy="139" r="10" fill="#598BE0"/>
<circle cx="20" cy="248" r="10" fill="#598BE0"/>
<circle cx="20" cy="377" r="10" fill="#598BE0"/>
<circle cx="30" cy="524" r="10" fill="#598BE0"/>
</g>
<defs>
<clipPath id="clip0_603_3">
<rect width="40" height="710" fill="white"/>
</clipPath>
</defs>
</svg>
